Coordinates
version=1
nRows=9
nColumns=24
inDegrees=yes

Units are S.I. units (second, meters, Newtons, ...)
Angles are in degrees.

endheader
time	pelvis_tilt	pelvis_list	pelvis_rotation	pelvis_tx	pelvis_ty	pelvis_tz	hip_flexion_r	hip_adduction_r	hip_rotation_r	knee_angle_r	ankle_angle_r	subtalar_angle_r	mtp_angle_r	hip_flexion_l	hip_adduction_l	hip_rotation_l	knee_angle_l	ankle_angle_l	subtalar_angle_l	mtp_angle_l	lumbar_extension	lumbar_bending	lumbar_rotation
      5.87000000	     37.26034158	      1.43110410	      7.84583515	      0.60916636	      0.66504125	     -0.24626620	    -24.68550026	      5.48797302	     -7.47851475	    -21.08108655	     20.03541949	      2.87821196	      0.00000000	    -22.71853718	     -5.88754251	     -3.04936968	    -71.10694856	      3.79472165	     -2.18520510	      0.00000000	    -63.54681369	      5.70311007	     -6.01773730
      5.87500000	     37.16505357	      1.52219994	      7.52024867	      0.61496146	      0.66612571	     -0.24636611	    -25.50910396	      5.32774775	     -7.18473270	    -20.42242846	     20.19122106	      3.00891345	      0.00000000	    -21.73604197	     -5.37552315	     -3.18680126	    -70.77279583	      4.57042249	     -1.66100164	      0.00000000	    -63.49826534	      5.44352947	     -5.81505859
      5.88000000	     37.07434750	      1.60425024	      7.19280248	      0.62077337	      0.66713551	     -0.24642712	    -26.34518906	      5.17930224	     -6.87678472	    -19.73852777	     20.33019890	      3.07874373	      0.00000000	    -20.78805604	     -4.90420258	     -3.36568700	    -70.33716548	      5.30714183	     -1.14490461	      0.00000000	    -63.46140228	      5.16787523	     -5.58827861
      5.88500000	     36.98699724	      1.67737696	      6.86632240	      0.62657416	      0.66806880	     -0.24646967	    -27.18497023	      5.03915068	     -6.55597180	    -19.04065058	     20.45306293	      3.10821749	      0.00000000	    -19.86856815	     -4.46002189	     -3.55711778	    -69.80256525	      6.00747500	     -0.63420112	      0.00000000	    -63.42969252	      4.88869582	     -5.35045720
      5.89000000	     36.98824988	      1.67598738	      6.42501976	      0.63243498	      0.66897152	     -0.24647243	    -28.12365727	      4.92077197	     -6.05916471	    -18.32070023	     20.56434869	      3.08798416	      0.00000000	    -19.12342257	     -4.09130511	     -3.92996782	    -69.12719421	      6.66430919	     -0.13977749	      0.00000000	    -63.47225307	      4.59766373	     -4.97956821
      5.89500000	     36.86876986	      1.76818426	      6.14974896	      0.63821798	      0.66971122	     -0.24659997	    -28.92371119	      4.76296042	     -5.77902258	    -17.62555712	     20.67794302	      3.07740352	      0.00000000	    -18.20198497	     -3.66364646	     -4.08043557	    -68.42647411	      7.26286937	      0.32435053	      0.00000000	    -63.42009792	      4.35860831	     -4.78414682
      5.90000000	     36.78077227	      1.81027966	      5.84072767	      0.64402819	      0.67036872	     -0.24669303	    -29.75407945	      4.63484016	     -5.44622175	    -16.92267718	     20.79458089	      3.06365633	      0.00000000	    -17.35954735	     -3.31015018	     -4.30692455	    -67.62383147	      7.85473615	      0.80969306	      0.00000000	    -63.39235242	      4.12765590	     -4.53357139
      5.90500000	     36.80505225	      1.78913322	      5.38789879	      0.64987051	      0.67101157	     -0.24665067	    -30.69762279	      4.50062633	     -4.96064759	    -16.21893364	     20.90885682	      3.01869133	      0.00000000	    -16.72882606	     -3.02431596	     -4.73963864	    -66.66545059	      8.41194377	      1.19013178	      0.00000000	    -63.47474253	      3.81651054	     -4.14184346
      5.91000000	     36.67050681	      1.84454824	      5.13710047	      0.65567013	      0.67145546	     -0.24680562	    -31.45516091	      4.36254838	     -4.71509555	    -15.55555478	     21.03837667	      3.01574132	      0.00000000	    -15.87328646	     -2.69216499	     -4.91021260	    -65.70165982	      8.88930413	      1.58362171	      0.00000000	    -63.40659531	      3.62795747	     -3.93715043
